<?xml version="1.0" standalone="no"?>
<!DOCTYPE svg PUBLIC "-//W3C//DTD SVG 20010904//EN"
 "http://www.w3.org/TR/2001/REC-SVG-20010904/DTD/svg10.dtd">
<svg version="1.0" xmlns="http://www.w3.org/2000/svg"
 width="3000.000000pt" height="1360.000000pt" viewBox="0 0 3000.000000 1360.000000"
 preserveAspectRatio="xMidYMid meet">

<g transform="translate(0.000000,1360.000000) scale(0.100000,-0.100000)"
fill="#000000" stroke="none">
<path d="M6784 12768 c-162 -154 -336 -386 -432 -573 -71 -140 -112 -230 -112
-246 0 -9 -11 -36 -23 -60 -13 -24 -30 -69 -37 -99 -7 -30 -23 -80 -35 -110
-13 -30 -26 -75 -30 -100 -4 -25 -18 -88 -31 -140 -22 -88 -65 -394 -78 -555
-23 -270 -12 -658 24 -919 11 -78 24 -180 30 -228 6 -48 17 -105 25 -129 8
-23 22 -85 31 -138 19 -117 31 -158 48 -164 7 -3 16 -30 20 -64 4 -32 11 -76
17 -98 21 -78 31 -11 27 199 -3 183 -1 206 14 223 13 14 27 18 48 15 23 -3 30
0 30 12 0 9 7 16 15 16 9 0 15 9 15 25 0 23 4 25 45 25 41 0 45 2 45 25 0 14
5 25 11 25 5 0 8 4 5 9 -8 13 19 21 74 21 33 0 50 5 54 15 3 8 17 15 32 15 22
0 25 2 14 15 -11 13 -7 15 29 15 30 0 41 4 41 15 0 10 10 15 31 15 27 0 30 2
19 15 -11 13 -7 15 24 15 24 0 36 5 36 14 0 10 19 16 65 21 36 4 65 11 65 16
0 5 13 9 29 9 16 0 31 6 35 15 3 8 15 15 26 15 12 0 19 4 16 9 -3 5 1 12 10
15 24 9 62 7 66 -3 5 -15 217 0 233 15 7 8 23 14 33 14 11 0 22 5 24 10 2 6
70 14 152 20 101 6 152 13 157 22 12 19 239 23 239 4 0 -10 36 -15 163 -20
192 -8 259 -15 251 -27 -3 -5 24 -9 59 -9 48 0 66 -4 71 -15 4 -11 20 -15 56
-15 27 0 50 -4 50 -10 0 -5 11 -12 25 -16 14 -3 25 -10 25 -15 0 -5 14 -9 30
-9 34 0 40 15 10 23 -29 7 -27 47 3 47 24 0 130 -71 203 -135 7 -5 25 -19 40
-30 28 -20 75 -60 118 -100 11 -11 48 -41 80 -65 62 -47 340 -319 391 -383 17
-20 44 -52 60 -71 17 -19 46 -55 65 -81 19 -26 49 -64 65 -85 17 -21 41 -52
55 -70 14 -18 39 -49 55 -70 31 -39 57 -80 87 -137 10 -18 27 -37 38 -43 11
-6 20 -17 20 -25 0 -25 23 -65 37 -65 29 0 8 72 -28 98 -10 7 -21 28 -25 47
-3 18 -15 42 -26 52 -11 10 -26 33 -34 51 -7 19 -25 47 -39 64 -14 16 -25 35
-25 42 0 7 -9 21 -21 32 -12 10 -27 31 -35 45 -18 36 -132 179 -234 292 -62
70 -366 376 -480 483 -41 39 -138 124 -215 190 -77 65 -147 126 -155 135 -8 9
-62 56 -120 105 -257 217 -840 826 -1032 1078 -201 263 -225 297 -312 439 -82
135 -188 337 -206 392 -7 22 -21 54 -30 70 -10 17 -24 53 -31 80 -7 28 -21 70
-31 95 -29 68 -49 174 -57 294 -4 73 -10 111 -18 113 -7 3 -43 -24 -79 -59z"/>
<path d="M5257 11426 c-38 -40 -1688 -1693 -1852 -1855 -254 -251 -408 -429
-561 -647 -411 -587 -672 -1251 -753 -1914 -37 -301 -42 -383 -42 -635 0 -219
19 -508 35 -534 3 -4 10 -47 16 -97 13 -100 65 -335 80 -364 17 -32 46 -33
118 -4 90 36 257 45 383 20 96 -19 222 -76 295 -134 27 -21 312 -301 633 -620
415 -414 590 -582 605 -582 12 0 31 9 42 19 361 353 2197 2206 2209 2231 15
29 17 53 12 165 -5 121 -43 393 -68 495 -59 238 -145 503 -269 830 -16 41 -42
112 -59 158 -17 46 -36 93 -43 105 -6 12 -21 49 -34 82 -12 33 -38 98 -59 145
-20 47 -61 145 -91 218 -30 72 -79 194 -110 270 -59 142 -96 239 -165 427
-122 332 -227 816 -265 1220 -23 236 -26 782 -5 900 11 63 11 86 2 103 -15 28
-27 28 -54 -2z"/>
<path d="M9329 10093 c5 -10 119 -126 253 -258 310 -307 457 -474 640 -731 46
-66 98 -141 114 -167 16 -26 40 -65 53 -85 13 -20 34 -55 46 -77 12 -22 43
-76 68 -121 282 -502 477 -1132 549 -1774 19 -176 16 -779 -5 -950 -58 -469
-166 -897 -317 -1260 -51 -124 -233 -495 -293 -600 -60 -103 -72 -122 -169
-264 -174 -252 -369 -487 -588 -707 -231 -233 -435 -395 -800 -636 -255 -168
-690 -377 -999 -479 -591 -195 -1213 -277 -1786 -234 -339 25 -655 77 -955
159 -229 62 -336 101 -615 219 -71 30 -340 160 -385 186 -59 35 -224 133 -254
151 -112 69 -392 278 -551 409 -338 281 -737 760 -1001 1201 -64 108 -256 509
-318 667 -144 365 -259 854 -293 1246 -27 326 -20 738 18 1037 35 275 142 715
236 975 78 216 208 502 318 695 18 33 43 77 55 99 34 60 139 224 194 301 145
202 294 375 561 645 266 270 334 344 322 356 -26 26 -360 -240 -598 -476 -424
-422 -685 -765 -961 -1265 -93 -168 -198 -383 -198 -404 0 -7 -10 -31 -22 -54
-24 -47 -47 -108 -118 -312 -92 -268 -165 -543 -194 -741 -9 -54 -24 -151 -35
-214 -31 -184 -44 -383 -44 -720 0 -335 12 -531 43 -725 11 -66 26 -165 35
-220 44 -276 192 -768 329 -1090 80 -189 333 -651 460 -840 286 -427 773 -942
1154 -1221 156 -115 439 -299 597 -389 125 -72 304 -164 318 -165 5 0 41 -15
80 -34 93 -44 319 -133 472 -186 277 -95 650 -179 1010 -227 202 -26 227 -28
640 -27 414 0 438 1 635 27 211 29 498 83 630 118 41 12 109 30 150 41 335 88
806 287 1125 474 28 16 65 38 84 49 65 39 427 281 491 330 229 174 579 505
781 740 76 88 237 291 279 351 133 190 200 300 324 528 216 397 305 617 450
1106 52 175 95 395 135 685 34 243 42 383 42 693 -1 303 -10 454 -36 627 -9
55 -24 156 -35 225 -47 304 -136 632 -264 965 -19 50 -46 121 -61 159 -14 38
-32 81 -40 95 -7 14 -35 71 -61 126 -132 277 -368 667 -543 895 -186 243 -578
657 -796 841 -218 184 -392 297 -356 232z"/>
<path d="M10170 8391 c0 -11 5 -23 10 -26 6 -4 10 5 10 19 0 14 -4 26 -10 26
-5 0 -10 -9 -10 -19z"/>
<path d="M10230 8273 c0 -16 7 -38 15 -49 14 -18 15 -16 13 25 -3 50 -28 71
-28 24z"/>
<path d="M10290 8143 c0 -53 10 -83 26 -83 17 0 19 56 4 94 -14 38 -30 32 -30
-11z"/>
<path d="M10345 8029 c-7 -10 0 -84 11 -121 3 -10 15 -18 26 -18 19 0 20 4 14
50 -11 84 -32 121 -51 89z"/>
<path d="M10407 7865 c-13 -32 5 -150 28 -185 16 -25 26 -62 34 -131 6 -53 20
-116 30 -140 13 -28 24 -89 31 -169 6 -69 17 -150 25 -180 24 -99 26 -146 26
-542 0 -438 -8 -570 -40 -624 -17 -29 -23 -63 -31 -176 -5 -77 -11 -143 -14
-145 -12 -13 -25 13 -31 62 -8 64 -25 71 -45 20 -7 -19 -22 -37 -32 -41 -10
-3 -18 -9 -18 -14 0 -8 -22 -14 -160 -46 -36 -8 -83 -23 -105 -33 -22 -11 -53
-22 -69 -26 -16 -3 -43 -21 -60 -39 -17 -18 -43 -36 -58 -40 -16 -3 -28 -13
-28 -21 0 -13 5 -13 38 1 36 16 102 35 192 55 25 6 102 11 172 12 121 1 128 0
167 -26 55 -36 86 -35 110 4 23 38 57 226 90 499 28 231 21 766 -14 985 -7 50
-21 142 -31 205 -9 63 -28 162 -41 220 -14 58 -34 143 -45 190 -10 47 -30 108
-44 137 -13 28 -24 61 -24 73 0 65 -40 151 -53 115z"/>
<path d="M9970 5930 c0 -5 5 -10 11 -10 5 0 7 5 4 10 -3 6 -8 10 -11 10 -2 0
-4 -4 -4 -10z"/>
<path d="M9972 5815 c-8 -49 -16 -100 -19 -112 -4 -17 -1 -23 11 -23 22 0 27
31 24 135 l-3 90 -13 -90z"/>
<path d="M9910 5615 c-6 -19 -20 -41 -30 -48 -20 -14 -38 -67 -23 -67 10 0 38
50 35 63 -1 4 4 7 12 7 12 0 36 47 36 71 0 23 -20 5 -30 -26z"/>
<path d="M9786 5444 c-4 -9 -4 -19 -2 -22 10 -9 36 8 36 23 0 20 -26 19 -34
-1z"/>
<path d="M9703 5366 c-24 -24 -43 -48 -43 -54 0 -7 -6 -12 -13 -12 -23 0 -52
-39 -39 -52 13 -13 42 6 42 28 0 8 9 14 20 14 10 0 30 11 43 24 13 12 28 25
35 27 6 2 14 19 18 37 9 45 -11 41 -63 -12z"/>
<path d="M9750 5290 c0 -5 5 -10 10 -10 6 0 10 5 10 10 0 6 -4 10 -10 10 -5 0
-10 -4 -10 -10z"/>
<path d="M9690 5235 c-7 -8 -21 -15 -31 -15 -11 0 -19 -6 -19 -14 0 -19 -267
-276 -287 -276 -6 0 -20 -12 -31 -27 -23 -31 -53 -26 -47 7 3 14 0 20 -8 17
-17 -5 -21 -38 -5 -48 10 -6 10 -9 1 -9 -7 0 -13 -7 -13 -15 0 -8 -4 -15 -10
-15 -5 0 -10 7 -10 15 0 24 -36 17 -48 -10 -6 -14 -16 -25 -22 -25 -5 0 -34
-24 -63 -52 -30 -29 -85 -82 -123 -117 -132 -122 -367 -348 -568 -546 -111
-110 -270 -266 -354 -346 -83 -81 -156 -157 -161 -170 -11 -30 -1 -57 32 -88
52 -48 64 -40 403 297 170 169 397 401 503 516 107 115 264 277 349 360 190
185 421 418 465 468 18 20 42 47 55 59 22 23 30 49 13 49 -5 0 -14 -7 -21 -15z"/>
<path d="M9550 5210 c0 -11 4 -20 10 -20 5 0 14 9 20 20 9 17 8 20 -10 20 -13
0 -20 -7 -20 -20z"/>
<path d="M9495 5169 c-4 -6 -5 -13 -2 -16 7 -7 27 6 27 18 0 12 -17 12 -25 -2z"/>
<path d="M9316 4981 c-4 -7 -5 -15 -2 -18 9 -9 19 4 14 18 -4 11 -6 11 -12 0z"/>
<path d="M7114 4855 c-9 -14 -25 -25 -35 -25 -10 0 -24 -9 -31 -20 -7 -11 -18
-20 -24 -20 -6 0 -21 -11 -34 -25 -19 -20 -30 -24 -51 -20 -15 4 -30 1 -34 -4
-3 -6 -15 -11 -26 -11 -10 0 -24 -9 -31 -20 -7 -11 -17 -20 -23 -20 -5 0 -21
-11 -35 -24 -14 -14 -37 -35 -51 -48 -14 -13 -48 -43 -75 -67 -232 -209 -954
-928 -967 -963 -16 -45 37 -108 91 -108 34 0 576 534 852 839 80 89 229 246
384 405 120 124 133 141 117 151 -6 3 -18 -6 -27 -20z"/>
</g>
</svg>
